<?xml version="1.0" encoding="utf-8"?>
<!-- Generator: Adobe Illustrator 23.0.1, SVG Export Plug-In . SVG Version: 6.00 Build 0)  -->
<svg version="1.1" id="Layer_1" xmlns="http://www.w3.org/2000/svg" xmlns:xlink="http://www.w3.org/1999/xlink" x="0px" y="0px"
	 viewBox="0 0 142.4 142.4" style="enable-background:new 0 0 142.4 142.4;" xml:space="preserve">
<style type="text/css">
	.st0{display:none;}
	.st1{display:inline;}
	.st2{fill:none;}
</style>
<g>
	<g>
		<g>
			<path d="M85.1,38.2l-16,16.4h-9.7c-4.2,0-6.2,2.2-6.2,6.2v20.7c0,3.9,2.1,6.2,6.2,6.2h9.7l16,16.4c4.6,4.3,11.6,2.4,11.6-4.8V43
				C96.7,35.8,89.6,34,85.1,38.2L85.1,38.2z M90.5,96.2c0,4.7-2.1,2.1-4.2,0c-3.7-3.7-9.4-9.6-14-14.6h-8.7c-3.2,0-4.1-1.1-4.1-4.1
				V65c0-3,1.1-4.1,4.1-4.1h8.8c4.6-5,10.2-10.9,13.9-14.6c2.1-2.1,4.2-4.8,4.2,0.1C90.5,56.5,90.5,86.3,90.5,96.2L90.5,96.2z"/>
		</g>
	</g>
	<g>
		<path d="M104.6,83.3c-0.4,0-0.8-0.1-1.2-0.2c-1.5-0.7-2.2-2.4-1.6-3.9c0.1-0.2,0.2-0.5,0.5-0.9c0.7-1.3,2.5-4.2,2.5-8.2
			c0-5.1-2.5-8.3-2.5-8.4c-1-1.3-0.9-3.2,0.4-4.2s3.1-0.9,4.2,0.3c0,0,3.9,4.7,3.9,12.3c0,5.6-2.4,9.7-3.3,11.3
			c-0.1,0.1-0.1,0.2-0.2,0.3C106.8,82.7,105.7,83.3,104.6,83.3z"/>
	</g>
	<g>
		<path d="M115.7,91c-0.4,0-0.9-0.1-1.3-0.3c-1.5-0.7-2.2-2.5-1.5-4c0.2-0.4,0.4-0.7,0.8-1.3c1.5-2.3,4.9-7.8,4.9-15.3
			c0-9.6-5.2-15.9-5.2-16c-1.1-1.3-0.9-3.2,0.4-4.2c1.3-1.1,3.2-0.9,4.2,0.4c0.3,0.3,6.6,8,6.6,19.8c0,9.2-4.2,16-5.8,18.5
			c-0.2,0.3-0.3,0.5-0.4,0.7C117.9,90.4,116.8,91,115.7,91z"/>
	</g>
	<g>
		<path d="M127.5,98.3c-0.3,0-0.7-0.1-1-0.2c-1.6-0.6-2.4-2.3-1.8-3.8c0.1-0.3,0.3-0.7,0.6-1.4c1.4-3.2,5.2-11.6,5.2-23.1
			c0-14.5-5.4-23.9-5.5-24c-0.8-1.4-0.4-3.3,1.1-4.1c1.4-0.8,3.3-0.4,4.1,1.1c0.3,0.4,6.3,10.9,6.3,27c0,12.8-4.1,22.1-5.7,25.6
			c-0.2,0.4-0.3,0.7-0.4,0.9C129.9,97.5,128.7,98.3,127.5,98.3z"/>
	</g>
</g>
<g class="st0">
	<g class="st1">
		<rect x="100.4" y="41.5" class="st2" width="74.6" height="70.4"/>
		<path d="M130.6,71.2l11.3,11.1l-4.7,4.7l-11.1-11.3L114.9,87l-4.7-4.7l11.3-11.1l-11.3-11.1l4.7-4.7L126,66.7l11.1-11.3l4.7,4.6
			L130.6,71.2z"/>
	</g>
</g>
</svg>
