<?xml version="1.0" encoding="utf-8"?>
<!-- Generator: Adobe Illustrator 23.0.1, SVG Export Plug-In . SVG Version: 6.00 Build 0)  -->
<svg version="1.1" id="Layer_1" xmlns="http://www.w3.org/2000/svg" xmlns:xlink="http://www.w3.org/1999/xlink" x="0px" y="0px"
	 viewBox="0 0 142.4 142.4" style="enable-background:new 0 0 142.4 142.4;" xml:space="preserve">
<g>
	<g>
		<path d="M128.4,72.9c0,11.4-9.3,20.7-20.7,20.7H60.1c0,0,8.3-9.3,8.3-20.7s-11.7-20.7-6.3-20.7h45.6
			C119.1,52.2,128.4,61.4,128.4,72.9z"/>
	</g>
</g>
<g id="on">
	<g>
		<g>
			<path d="M43.8,49.3c13,0,23.6,10.6,23.6,23.6S56.8,96.5,43.8,96.5S20.2,85.9,20.2,72.9S30.8,49.3,43.8,49.3 M43.8,45.3
				c-15.2,0-27.6,12.3-27.6,27.6s12.4,27.6,27.6,27.6c15.3,0,27.6-12.3,27.6-27.6S59,45.3,43.8,45.3L43.8,45.3z"/>
		</g>
	</g>
</g>
</svg>
