<?xml version="1.0" encoding="utf-8"?>
<!-- Generator: Adobe Illustrator 23.0.1, SVG Export Plug-In . SVG Version: 6.00 Build 0)  -->
<svg version="1.1" xmlns="http://www.w3.org/2000/svg" xmlns:xlink="http://www.w3.org/1999/xlink" x="0px" y="0px"
	 viewBox="0 0 142.4 142.4" style="enable-background:new 0 0 142.4 142.4;" xml:space="preserve">
<style type="text/css">
	.st0{fill-rule:evenodd;clip-rule:evenodd;}
	.st1{fill-rule:evenodd;clip-rule:evenodd;fill:none;stroke:#000000;stroke-width:4;stroke-miterlimit:10;}
</style>
<g id="on">
	<g>
		<path class="st0" d="M103.8,45.3c15.2,0,27.6,12.3,27.6,27.6s-12.3,27.6-27.6,27.6c-15.2,0-27.6-12.3-27.6-27.6
			S88.6,45.3,103.8,45.3z"/>
		<path class="st1" d="M31.7,52.2h65.6c11.4,0,20.7,9.3,20.7,20.7c0,11.4-9.3,20.7-20.7,20.7H31.7C20.3,93.5,11,84.3,11,72.9
			C11,61.4,20.3,52.2,31.7,52.2z"/>
	</g>
</g>
<g id="Layer_2">
	<g>
		<path class="st0" d="M63.2,72.9c0,15.2-12.3,27.6-27.6,27.6C20.4,100.4,8,88.1,8,72.9s12.3-27.6,27.6-27.6
			C50.8,45.3,63.2,57.6,63.2,72.9z"/>
		<path class="st1" d="M128.4,72.9c0,11.4-9.3,20.7-20.7,20.7H42.1c-11.4,0-20.7-9.3-20.7-20.7c0-11.4,9.3-20.7,20.7-20.7h65.6
			C119.1,52.2,128.4,61.4,128.4,72.9z"/>
	</g>
</g>
</svg>
