<?xml version="1.0" encoding="utf-8"?>
<!-- Generator: Adobe Illustrator 23.0.1, SVG Export Plug-In . SVG Version: 6.00 Build 0)  -->
<svg version="1.1" id="Capa_1" xmlns="http://www.w3.org/2000/svg" xmlns:xlink="http://www.w3.org/1999/xlink" x="0px" y="0px"
	 viewBox="0 0 142.4 142.4" style="enable-background:new 0 0 142.4 142.4;" xml:space="preserve">
<g>
	<g transform="translate(0.000000,511.000000) scale(0.100000,-0.100000)">
		<path d="M704.5,4831.7c-1.8-2-2.5-13.6-3.2-52.6l-0.8-49.9l-132.2-0.8c-258.1-1-236.7-0.2-274-12.4c-36.7-12.3-64-39.4-93.6-68.9
			c-36.7-36.7-56.7-73.1-68.2-124.7c-3.2-13.8-3.5-102.4-4.1-162.9c-0.8-70.3-0.5-64.3,6.1-64.3c2,0,14.6,1.1,32,18.2
			c22.2,21.6,40.2,30.5,44.5,38.5c5.5,10.3,5.5,10.8,6.6,39.5c1.5,35.8,5,120.4,17.2,145.5c23.1,46.9,54.2,78.8,105.8,89.4
			c11.1,2.3,39.6,2.7,236.7,2.7h123.9v-48.3c0-29.7,0.7-49.4,1.7-51.3c3-5.6,7.6-7,13.4-4c8.6,4.3,127.6,123.3,131,130.9
			c16.3,16.3,14.8,30.9,0.8,44.9c-3.3,7.6-9,13.6-75.1,78.1c-48.6,47.6-57.2,55.4-61.5,55.4C709,4834.6,705.7,4833.4,704.5,4831.7z"
			/>
		<path d="M817.2,4526.4c-39-38.7-48.1-37.2-49.8-76c-1.5-33.5-5-119.3-15.6-141.8c-13.4-28.4-32.5-50.6-58.1-67.5
			c-15.6-10.4-16.9-15.8-37.1-22.1l-14.3-4.5l-229.2-0.5l-109.4-0.3v48.1c0,29.9-0.7,49.6-1.7,51.4c-2.7,5-7.5,7-12.6,5
			c-6.8-2.7-128.2-123.9-131.9-131.9c-15.5-15.5-14.2-31.6-0.7-45c3-7.3,12.8-17.4,79.1-82.1c71-69.3,67.7-69.7,67.7,5.5v49.4
			l112.5,0.5c258.9,0.5,237.2-0.5,274.5,11.9c36,11.9,65,40.4,94.4,69.5c35.5,35.5,56.2,83.6,67.2,133.4
			c3.3,14.6,3.6,92.4,4.3,154.3c0.7,61.9,0.5,68.3-2,70.8c-1.5,1.7-3.5,2.8-4.6,2.8C849,4557.4,834.3,4543.5,817.2,4526.4z"/>
	</g>
</g>
<g>
	<path d="M54.6,52.3v32.6h-9.2V63.1h-6.2v-5.8h1.2c1.9,0,3.5-0.4,4.8-1.1c1.6-0.9,2.5-2.2,2.8-3.9H54.6z"/>
</g>
</svg>
