<?xml version="1.0" encoding="utf-8"?>
<!-- Generator: Adobe Illustrator 23.0.1, SVG Export Plug-In . SVG Version: 6.00 Build 0)  -->
<svg version="1.1" id="Capa_1" xmlns="http://www.w3.org/2000/svg" xmlns:xlink="http://www.w3.org/1999/xlink" x="0px" y="0px"
	 viewBox="0 0 142.4 142.4" style="enable-background:new 0 0 142.4 142.4;" xml:space="preserve">
<g>
	<path d="M34,98.3v-8c0-0.4,0.1-0.7,0.4-1c0.3-0.3,0.6-0.4,1-0.4h9.3c1.3,0,2.5-0.2,3.6-0.7c1-0.4,2-1.1,2.9-1.9s1.6-1.6,2.1-2.5
		s1.1-2,1.9-3.2c0.8-1.7,1.9-4.1,3.2-7.1c0.8-1.8,1.5-3.3,2.1-4.6c0.6-1.3,1.3-2.7,2.2-4.3c0.9-1.6,1.8-3,2.7-4.2s1.9-2.3,3.1-3.4
		c1.1-1.1,2.4-2,3.7-2.8c1.3-0.8,2.8-1.4,4.4-1.8c1.6-0.4,3.4-0.6,5.4-0.7h10.6v-8c0-0.4,0.1-0.7,0.4-1s0.6-0.4,1-0.4
		c0.3,0,0.6,0.1,1,0.4l13,13.4c0.3,0.3,0.4,0.6,0.4,1s-0.1,0.7-0.4,1L94.7,71.4c-0.3,0.3-0.5,0.4-0.9,0.4s-0.7-0.2-1-0.4
		c-0.3-0.3-0.4-0.6-0.4-0.9v-8H81.8c-1.3,0-2.6,0.2-3.6,0.6s-2,1-2.8,1.9c-0.8,0.8-1.5,1.7-2.2,2.6c-0.6,0.9-1.3,2-1.9,3.2
		c-0.9,1.7-2,4-3.2,7.1c-0.8,1.8-1.5,3.4-2.1,4.6s-1.3,2.7-2.2,4.4S62,90,61.1,91s-1.9,2.2-3.1,3.5c-1.1,1.3-2.4,2.2-3.7,2.8
		c-1.3,0.6-2.8,1.2-4.5,1.7c-1.6,0.5-3.4,0.8-5.3,0.7h-9.3c-0.4,0-0.7-0.1-1-0.4C34.1,99,34,98.7,34,98.3L34,98.3z M34,61.1v-8
		c0-0.4,0.1-0.7,0.4-1c0.3-0.2,0.6-0.4,1-0.4h9.3c6.9,0,12.6,3.1,17,9.3c-1.7,2.6-3.6,6.4-5.7,11.4c-0.6-1.2-1.1-2.3-1.5-3.1
		c-0.4-0.8-1-1.7-1.7-2.6s-1.4-1.7-2.1-2.4c-0.7-0.5-1.6-1-2.7-1.3s-2.3-0.5-3.3-0.6h-9.3c-0.4,0-0.7-0.1-1-0.4S34,61.5,34,61.1z
		 M64.9,90.3c1.6-2.6,3.5-6.4,5.7-11.3c0.6,1.2,1.1,2.2,1.5,3c0.4,0.7,1,1.6,1.7,2.7c0.7,1,1.4,1.8,2.1,2.3c0.6,0.5,1.5,1,2.6,1.5
		s2.2,0.7,3.4,0.6h10.6v-8c0-0.4,0.1-0.7,0.4-1s0.6-0.4,1-0.4c0.3,0,0.6,0.1,1,0.4L108,93.3c0.3,0.3,0.4,0.6,0.4,1s-0.1,0.7-0.4,1
		l-13.3,13.3c-0.3,0.3-0.5,0.4-0.9,0.4s-0.7-0.2-1-0.4c-0.3-0.3-0.4-0.6-0.4-0.9v-8c-0.9,0-2.1,0-3.6,0s-2.6,0-3.3,0.1
		c-0.7,0.1-1.8,0-3.1-0.1c-1.3-0.1-2.3-0.2-2.9-0.2c-0.6-0.1-1.5-0.2-2.7-0.4c-1.1-0.3-2-0.5-2.6-0.7C73.7,98,72.9,97.6,72,97
		c-1-0.5-1.8-1.1-2.5-1.6c-0.6-0.5-1.4-1.3-2.3-2.2C66.3,92.2,65.5,91.3,64.9,90.3L64.9,90.3z"/>
</g>
</svg>
