<?xml version="1.0" encoding="UTF-8" standalone="no"?>
<!-- Generator: Adobe Illustrator 23.0.1, SVG Export Plug-In . SVG Version: 6.00 Build 0)  -->

<svg
   version="1.1"
   id="Capa_1"
   x="0px"
   y="0px"
   viewBox="0 0 100.00001 142.4"
   xml:space="preserve"
   sodipodi:docname="shuffle.svg"
   width="100"
   height="142.39999"
   inkscape:version="1.4.3 (0d15f75042, 2025-12-25)"
   xmlns:inkscape="http://www.inkscape.org/namespaces/inkscape"
   xmlns:sodipodi="http://sodipodi.sourceforge.net/DTD/sodipodi-0.dtd"
   xmlns="http://www.w3.org/2000/svg"
   xmlns:svg="http://www.w3.org/2000/svg"><defs
   id="defs1" /><sodipodi:namedview
   id="namedview1"
   pagecolor="#ffffff"
   bordercolor="#000000"
   borderopacity="0.25"
   inkscape:showpageshadow="2"
   inkscape:pageopacity="0.0"
   inkscape:pagecheckerboard="0"
   inkscape:deskcolor="#d1d1d1"
   showguides="true"
   inkscape:zoom="6.1025284"
   inkscape:cx="43.998157"
   inkscape:cy="67.103334"
   inkscape:window-width="2752"
   inkscape:window-height="1078"
   inkscape:window-x="0"
   inkscape:window-y="0"
   inkscape:window-maximized="1"
   inkscape:current-layer="Capa_1" />
<g
   id="g2"
   transform="translate(-1.2,-4.4500031)"><g
     id="g1"
     transform="translate(-20)">
	<path
   d="m 34,98.3 v -8 c 0,-0.4 0.1,-0.7 0.4,-1 0.3,-0.3 0.6,-0.4 1,-0.4 h 9.3 c 1.3,0 2.5,-0.2 3.6,-0.7 1,-0.4 2,-1.1 2.9,-1.9 0.9,-0.8 1.6,-1.6 2.1,-2.5 0.5,-0.9 1.1,-2 1.9,-3.2 0.8,-1.7 1.9,-4.1 3.2,-7.1 0.8,-1.8 1.5,-3.3 2.1,-4.6 0.6,-1.3 1.3,-2.7 2.2,-4.3 0.9,-1.6 1.8,-3 2.7,-4.2 0.9,-1.2 1.9,-2.3 3.1,-3.4 1.1,-1.1 2.4,-2 3.7,-2.8 1.3,-0.8 2.8,-1.4 4.4,-1.8 C 78.2,52 80,51.8 82,51.7 h 10.6 v -8 c 0,-0.4 0.1,-0.7 0.4,-1 0.3,-0.3 0.6,-0.4 1,-0.4 0.3,0 0.6,0.1 1,0.4 l 13,13.4 c 0.3,0.3 0.4,0.6 0.4,1 0,0.4 -0.1,0.7 -0.4,1 L 94.7,71.4 c -0.3,0.3 -0.5,0.4 -0.9,0.4 -0.4,0 -0.7,-0.2 -1,-0.4 -0.3,-0.3 -0.4,-0.6 -0.4,-0.9 v -8 H 81.8 c -1.3,0 -2.6,0.2 -3.6,0.6 -1,0.4 -2,1 -2.8,1.9 -0.8,0.8 -1.5,1.7 -2.2,2.6 -0.6,0.9 -1.3,2 -1.9,3.2 -0.9,1.7 -2,4 -3.2,7.1 -0.8,1.8 -1.5,3.4 -2.1,4.6 -0.6,1.2 -1.3,2.7 -2.2,4.4 -0.9,1.7 -1.8,3.1 -2.7,4.1 -0.9,1 -1.9,2.2 -3.1,3.5 -1.1,1.3 -2.4,2.2 -3.7,2.8 -1.3,0.6 -2.8,1.2 -4.5,1.7 -1.6,0.5 -3.4,0.8 -5.3,0.7 h -9.3 c -0.4,0 -0.7,-0.1 -1,-0.4 C 34.1,99 34,98.7 34,98.3 Z m 0,-37.2 v -8 c 0,-0.4 0.1,-0.7 0.4,-1 0.3,-0.2 0.6,-0.4 1,-0.4 h 9.3 c 6.9,0 12.6,3.1 17,9.3 C 60,63.6 58.1,67.4 56,72.4 55.4,71.2 54.9,70.1 54.5,69.3 54.1,68.5 53.5,67.6 52.8,66.7 52.1,65.8 51.4,65 50.7,64.3 50,63.8 49.1,63.3 48,63 46.9,62.7 45.7,62.5 44.7,62.4 H 35.4 C 35,62.4 34.7,62.3 34.4,62 34.1,61.7 34,61.5 34,61.1 Z m 30.9,29.2 c 1.6,-2.6 3.5,-6.4 5.7,-11.3 0.6,1.2 1.1,2.2 1.5,3 0.4,0.7 1,1.6 1.7,2.7 0.7,1 1.4,1.8 2.1,2.3 0.6,0.5 1.5,1 2.6,1.5 1.1,0.5 2.2,0.7 3.4,0.6 h 10.6 v -8 c 0,-0.4 0.1,-0.7 0.4,-1 0.3,-0.3 0.6,-0.4 1,-0.4 0.3,0 0.6,0.1 1,0.4 L 108,93.3 c 0.3,0.3 0.4,0.6 0.4,1 0,0.4 -0.1,0.7 -0.4,1 l -13.3,13.3 c -0.3,0.3 -0.5,0.4 -0.9,0.4 -0.4,0 -0.7,-0.2 -1,-0.4 -0.3,-0.3 -0.4,-0.6 -0.4,-0.9 v -8 c -0.9,0 -2.1,0 -3.6,0 -1.5,0 -2.6,0 -3.3,0.1 -0.7,0.1 -1.8,0 -3.1,-0.1 C 81.1,99.6 80.1,99.5 79.5,99.5 78.9,99.4 78,99.3 76.8,99.1 75.7,98.8 74.8,98.6 74.2,98.4 73.7,98 72.9,97.6 72,97 c -1,-0.5 -1.8,-1.1 -2.5,-1.6 -0.6,-0.5 -1.4,-1.3 -2.3,-2.2 -0.9,-1 -1.7,-1.9 -2.3,-2.9 z"
   id="path1" />
</g></g>
</svg>
