<?xml version="1.0" encoding="utf-8"?>
<!-- Generator: Adobe Illustrator 23.0.1, SVG Export Plug-In . SVG Version: 6.00 Build 0)  -->
<svg version="1.1" id="Layer_2" xmlns="http://www.w3.org/2000/svg" xmlns:xlink="http://www.w3.org/1999/xlink" x="0px" y="0px"
	 viewBox="0 0 142.4 142.4" style="enable-background:new 0 0 142.4 142.4;" xml:space="preserve">

<g>
	<path d="M85.1,38.2l-16,16.4h-9.7c-4.2,0-6.2,2.2-6.2,6.2v20.7c0,3.9,2.1,6.2,6.2,6.2h9.7l16,16.4c4.6,4.3,11.6,2.4,11.6-4.8V43
		C96.7,35.8,89.6,34,85.1,38.2L85.1,38.2z M90.5,96.2c0,4.7-2.1,2.1-4.2,0c-3.7-3.7-9.4-9.6-14-14.6h-8.7c-3.2,0-4.1-1.1-4.1-4.1V65
		c0-3,1.1-4.1,4.1-4.1h8.8c4.6-5,10.2-10.9,13.9-14.6c2.1-2.1,4.2-4.8,4.2,0.1C90.5,56.5,90.5,86.3,90.5,96.2L90.5,96.2z"/>
</g>
<g>

	<path d="M130.6,71.2l11.3,11.1l-4.7,4.7l-11.1-11.3L114.9,87l-4.7-4.7l11.3-11.1l-11.3-11.1l4.7-4.7l11.1,11.3l11.1-11.3l4.7,4.6
		L130.6,71.2z"/>
</g>
</svg>
