<?xml version="1.0" encoding="UTF-8" standalone="no"?>
<!-- Generator: Adobe Illustrator 23.0.1, SVG Export Plug-In . SVG Version: 6.00 Build 0)  -->

<svg
   version="1.1"
   id="Capa_1"
   x="0px"
   y="0px"
   viewBox="0 0 100 142.4"
   xml:space="preserve"
   sodipodi:docname="repeat.svg"
   width="100"
   height="142.39999"
   inkscape:version="1.4.3 (0d15f75042, 2025-12-25)"
   xmlns:inkscape="http://www.inkscape.org/namespaces/inkscape"
   xmlns:sodipodi="http://sodipodi.sourceforge.net/DTD/sodipodi-0.dtd"
   xmlns="http://www.w3.org/2000/svg"
   xmlns:svg="http://www.w3.org/2000/svg"><defs
   id="defs3" /><sodipodi:namedview
   id="namedview3"
   pagecolor="#ffffff"
   bordercolor="#000000"
   borderopacity="0.25"
   inkscape:showpageshadow="2"
   inkscape:pageopacity="0.0"
   inkscape:pagecheckerboard="0"
   inkscape:deskcolor="#d1d1d1"
   inkscape:zoom="6.1025284"
   inkscape:cx="71.199996"
   inkscape:cy="71.199996"
   inkscape:window-width="2752"
   inkscape:window-height="1078"
   inkscape:window-x="0"
   inkscape:window-y="0"
   inkscape:window-maximized="1"
   inkscape:current-layer="Capa_1" />
<g
   id="g1"
   transform="translate(0,2.322278)"><g
     id="g4"
     transform="translate(0.64251316)"><g
       id="g3">
	<g
   transform="matrix(0.1,0,0,-0.1,0,511)"
   id="g2">
		<path
   d="m 704.5,4831.7 c -1.8,-2 -2.5,-13.6 -3.2,-52.6 l -0.8,-49.9 -132.2,-0.8 c -258.1,-1 -236.7,-0.2 -274,-12.4 -36.7,-12.3 -64,-39.4 -93.6,-68.9 -36.7,-36.7 -56.7,-73.1 -68.2,-124.7 -3.2,-13.8 -3.5,-102.4 -4.1,-162.9 -0.8,-70.3 -0.5,-64.3 6.1,-64.3 2,0 14.6,1.1 32,18.2 22.2,21.6 40.2,30.5 44.5,38.5 5.5,10.3 5.5,10.8 6.6,39.5 1.5,35.8 5,120.4 17.2,145.5 23.1,46.9 54.2,78.8 105.8,89.4 11.1,2.3 39.6,2.7 236.7,2.7 h 123.9 v -48.3 c 0,-29.7 0.7,-49.4 1.7,-51.3 3,-5.6 7.6,-7 13.4,-4 8.6,4.3 127.6,123.3 131,130.9 16.3,16.3 14.8,30.9 0.8,44.9 -3.3,7.6 -9,13.6 -75.1,78.1 -48.6,47.6 -57.2,55.4 -61.5,55.4 -2.5,-0.1 -5.8,-1.3 -7,-3 z"
   id="path1" />
		<path
   d="m 817.2,4526.4 c -39,-38.7 -48.1,-37.2 -49.8,-76 -1.5,-33.5 -5,-119.3 -15.6,-141.8 -13.4,-28.4 -32.5,-50.6 -58.1,-67.5 -15.6,-10.4 -16.9,-15.8 -37.1,-22.1 l -14.3,-4.5 -229.2,-0.5 -109.4,-0.3 v 48.1 c 0,29.9 -0.7,49.6 -1.7,51.4 -2.7,5 -7.5,7 -12.6,5 -6.8,-2.7 -128.2,-123.9 -131.9,-131.9 -15.5,-15.5 -14.2,-31.6 -0.7,-45 3,-7.3 12.8,-17.4 79.1,-82.1 71,-69.3 67.7,-69.7 67.7,5.5 v 49.4 l 112.5,0.5 c 258.9,0.5 237.2,-0.5 274.5,11.9 36,11.9 65,40.4 94.4,69.5 35.5,35.5 56.2,83.6 67.2,133.4 3.3,14.6 3.6,92.4 4.3,154.3 0.7,61.9 0.5,68.3 -2,70.8 -1.5,1.7 -3.5,2.8 -4.6,2.8 -0.9,0.1 -15.6,-13.8 -32.7,-30.9 z"
   id="path2" />
	</g>
</g></g></g>
</svg>
