<?xml version="1.0" encoding="UTF-8" standalone="no"?>
<!-- Generator: Adobe Illustrator 23.0.1, SVG Export Plug-In . SVG Version: 6.00 Build 0)  -->

<svg
   version="1.1"
   id="Layer_1"
   x="0px"
   y="0px"
   viewBox="0 0 100.00001 142.4"
   xml:space="preserve"
   sodipodi:docname="speaker.svg"
   width="100"
   height="142.39999"
   inkscape:version="1.4.3 (0d15f75042, 2025-12-25)"
   xmlns:inkscape="http://www.inkscape.org/namespaces/inkscape"
   xmlns:sodipodi="http://sodipodi.sourceforge.net/DTD/sodipodi-0.dtd"
   xmlns="http://www.w3.org/2000/svg"
   xmlns:svg="http://www.w3.org/2000/svg"><defs
   id="defs8" /><sodipodi:namedview
   id="namedview8"
   pagecolor="#ffffff"
   bordercolor="#000000"
   borderopacity="0.25"
   inkscape:showpageshadow="2"
   inkscape:pageopacity="0.0"
   inkscape:pagecheckerboard="0"
   inkscape:deskcolor="#d1d1d1"
   inkscape:zoom="6.1025284"
   inkscape:cx="71.199996"
   inkscape:cy="71.199996"
   inkscape:window-width="2752"
   inkscape:window-height="1078"
   inkscape:window-x="0"
   inkscape:window-y="0"
   inkscape:window-maximized="1"
   inkscape:current-layer="Layer_1" />
<style
   type="text/css"
   id="style1">
	.st0{display:none;}
	.st1{display:inline;}
	.st2{fill:none;}
</style>
<g
   id="g9"
   transform="translate(0,0.0278511)"><g
     id="g6"
     transform="translate(-48)">
	<g
   id="g2">
		<g
   id="g1">
			<path
   d="m 85.1,38.2 -16,16.4 h -9.7 c -4.2,0 -6.2,2.2 -6.2,6.2 v 20.7 c 0,3.9 2.1,6.2 6.2,6.2 h 9.7 l 16,16.4 c 4.6,4.3 11.6,2.4 11.6,-4.8 V 43 c 0,-7.2 -7.1,-9 -11.6,-4.8 z m 5.4,58 c 0,4.7 -2.1,2.1 -4.2,0 -3.7,-3.7 -9.4,-9.6 -14,-14.6 h -8.7 c -3.2,0 -4.1,-1.1 -4.1,-4.1 V 65 c 0,-3 1.1,-4.1 4.1,-4.1 h 8.8 C 77,55.9 82.6,50 86.3,46.3 c 2.1,-2.1 4.2,-4.8 4.2,0.1 0,10.1 0,39.9 0,49.8 z"
   id="path1" />
		</g>
	</g>
	<g
   id="g3">
		<path
   d="m 106.56644,83.3 c -0.4,0 -0.8,-0.1 -1.2,-0.2 -1.5,-0.7 -2.2,-2.4 -1.6,-3.9 0.1,-0.2 0.2,-0.5 0.5,-0.9 0.7,-1.3 2.5,-4.2 2.5,-8.2 0,-5.1 -2.5,-8.3 -2.5,-8.4 -1,-1.3 -0.9,-3.2 0.4,-4.2 1.3,-1 3.1,-0.9 4.2,0.3 0,0 3.9,4.7 3.9,12.3 0,5.6 -2.4,9.7 -3.3,11.3 -0.1,0.1 -0.1,0.2 -0.2,0.3 -0.5,1 -1.6,1.6 -2.7,1.6 z"
   id="path2" />
	</g>
	<g
   id="g4">
		<path
   d="m 117.66644,91 c -0.4,0 -0.9,-0.1 -1.3,-0.3 -1.5,-0.7 -2.2,-2.5 -1.5,-4 0.2,-0.4 0.4,-0.7 0.8,-1.3 1.5,-2.3 4.9,-7.8 4.9,-15.3 0,-9.6 -5.2,-15.9 -5.2,-16 -1.1,-1.3 -0.9,-3.2 0.4,-4.2 1.3,-1.1 3.2,-0.9 4.2,0.4 0.3,0.3 6.6,8 6.6,19.8 0,9.2 -4.2,16 -5.8,18.5 -0.2,0.3 -0.3,0.5 -0.4,0.7 -0.5,1.1 -1.6,1.7 -2.7,1.7 z"
   id="path3" />
	</g>
	<g
   id="g5">
		<path
   d="m 129.46644,98.3 c -0.3,0 -0.7,-0.1 -1,-0.2 -1.6,-0.6 -2.4,-2.3 -1.8,-3.8 0.1,-0.3 0.3,-0.7 0.6,-1.4 1.4,-3.2 5.2,-11.6 5.2,-23.1 0,-14.5 -5.4,-23.9 -5.5,-24 -0.8,-1.4 -0.4,-3.3 1.1,-4.1 1.4,-0.8 3.3,-0.4 4.1,1.1 0.3,0.4 6.3,10.9 6.3,27 0,12.8 -4.1,22.1 -5.7,25.6 -0.2,0.4 -0.3,0.7 -0.4,0.9 -0.5,1.2 -1.7,2 -2.9,2 z"
   id="path4" />
	</g>
</g></g>
<g
   class="st0"
   id="g8">
	<g
   class="st1"
   id="g7">
		<rect
   x="100.4"
   y="41.5"
   class="st2"
   width="74.599998"
   height="70.400002"
   id="rect6" />
		<path
   d="M 130.6,71.2 141.9,82.3 137.2,87 126.1,75.7 114.9,87 110.2,82.3 121.5,71.2 110.2,60.1 114.9,55.4 126,66.7 137.1,55.4 141.8,60 Z"
   id="path6" />
	</g>
</g>
</svg>
